<svg width="48" height="48" viewBox="0 0 48 48" fill="none" xmlns="http://www.w3.org/2000/svg">
<g clip-path="url(#clip0_1011_1381)">
<g filter="url(#filter0_d_1011_1381)">
<path d="M17.4109 40C17.4109 41.4728 18.6048 42.6667 20.0775 42.6667C21.5503 42.6667 22.7442 41.4728 22.7442 40C22.7442 38.5272 21.5503 37.3333 20.0775 37.3333C18.6048 37.3333 17.4109 38.5272 17.4109 40ZM24.1705 29.8022L24.6398 29.6296L24.1908 28.4093L23.7065 29.616L24.1705 29.8022ZM27.9225 40L27.4532 40.1726L27.5737 40.5H27.9225V40ZM35.7674 40V40.5H36.1325L36.2437 40.1523L35.7674 40ZM46 8L46.4762 8.15229L46.6848 7.5H46V8ZM38.155 8V7.5H37.7766L37.6738 7.86422L38.155 8ZM32.6977 27.3407L32.2271 27.5097L32.7549 28.9789L33.1789 27.4764L32.6977 27.3407ZM25.876 8.35165L26.3465 8.1826L25.9125 6.97439L25.415 8.15791L25.876 8.35165ZM12.5736 40L12.0989 40.1569L12.5175 41.4239L13.0346 40.1937L12.5736 40ZM2 8V7.5H1.3082L1.52525 8.15687L2 8ZM10.5271 8L11.0009 7.84016L10.8861 7.5H10.5271V8ZM16.9073 26.9111L18.7198 23.253L15.0617 21.4405L13.2492 25.0986L16.9073 26.9111ZM20.5415 40.1862L24.6346 29.9884L23.7065 29.616L19.6135 39.8138L20.5415 40.1862ZM23.7013 29.9748L27.4532 40.1726L28.3917 39.8274L24.6398 29.6296L23.7013 29.9748ZM27.9225 40.5H35.7674V39.5H27.9225V40.5ZM36.2437 40.1523L46.4762 8.15229L45.5238 7.84771L35.2912 39.8477L36.2437 40.1523ZM46 7.5H38.155V8.5H46V7.5ZM37.6738 7.86422L32.2165 27.2049L33.1789 27.4764L38.6363 8.13578L37.6738 7.86422ZM33.1682 27.1716L26.3465 8.1826L25.4054 8.52069L32.2271 27.5097L33.1682 27.1716ZM25.415 8.15791L12.1127 39.8063L13.0346 40.1937L26.3369 8.54539L25.415 8.15791ZM13.0484 39.8431L2.47475 7.84313L1.52525 8.15687L12.0989 40.1569L13.0484 39.8431ZM2 8.5H10.5271V7.5H2V8.5ZM10.0534 8.15984L15.5107 24.3357L16.4583 24.016L11.0009 7.84016L10.0534 8.15984Z" fill="white" fill-opacity="0.980646"/>
</g>
</g>
<defs>
<filter id="filter0_d_1011_1381" x="-2.69177" y="6.97461" width="53.3766" height="43.6914" filterUnits="userSpaceOnUse" color-interpolation-filters="sRGB">
<feFlood flood-opacity="0" result="BackgroundImageFix"/>
<feColorMatrix in="SourceAlpha" type="matrix" values="0 0 0 0 0 0 0 0 0 0 0 0 0 0 0 0 0 0 127 0" result="hardAlpha"/>
<feOffset dy="4"/>
<feGaussianBlur stdDeviation="2"/>
<feComposite in2="hardAlpha" operator="out"/>
<feColorMatrix type="matrix" values="0 0 0 0 0 0 0 0 0 0 0 0 0 0 0 0 0 0 0.25 0"/>
<feBlend mode="normal" in2="BackgroundImageFix" result="effect1_dropShadow_1011_1381"/>
<feBlend mode="normal" in="SourceGraphic" in2="effect1_dropShadow_1011_1381" result="shape"/>
</filter>
<clipPath id="clip0_1011_1381">
<rect width="48" height="48" rx="5" fill="white"/>
</clipPath>
</defs>
</svg>
