<svg width="48" height="48" viewBox="0 0 48 48" fill="none" xmlns="http://www.w3.org/2000/svg">
<g clip-path="url(#clip0_1010_1291)">
<g filter="url(#filter0_d_1010_1291)">
<path d="M18.7442 40C18.7442 40.7364 19.3411 41.3333 20.0775 41.3333C20.8139 41.3333 21.4109 40.7364 21.4109 40C21.4109 39.2636 20.8139 38.6667 20.0775 38.6667C19.3411 38.6667 18.7442 39.2636 18.7442 40ZM24.1705 29.8022L24.4052 29.7159L24.1807 29.1057L23.9385 29.7091L24.1705 29.8022ZM27.9225 40L27.6879 40.0863L27.7481 40.25H27.9225V40ZM35.7674 40V40.25H35.95L36.0056 40.0761L35.7674 40ZM46 8L46.2381 8.07614L46.3424 7.75H46V8ZM38.155 8V7.75H37.9658L37.9144 7.93211L38.155 8ZM32.6977 27.3407L32.4624 27.4252L32.7263 28.1598L32.9383 27.4086L32.6977 27.3407ZM25.876 8.35165L26.1112 8.26713L25.8942 7.66302L25.6455 8.25478L25.876 8.35165ZM12.5736 40L12.3363 40.0784L12.5456 40.7119L12.8041 40.0969L12.5736 40ZM2 8V7.75H1.6541L1.76262 8.07844L2 8ZM10.5271 8L10.764 7.92008L10.7066 7.75H10.5271V8ZM16.4459 25.5435L17.3521 23.7144L15.5231 22.8082L14.6169 24.6372L16.4459 25.5435ZM20.3095 40.0931L24.4026 29.8953L23.9385 29.7091L19.8455 39.9069L20.3095 40.0931ZM23.9359 29.8885L27.6879 40.0863L28.1571 39.9137L24.4052 29.7159L23.9359 29.8885ZM27.9225 40.25H35.7674V39.75H27.9225V40.25ZM36.0056 40.0761L46.2381 8.07614L45.7619 7.92386L35.5293 39.9239L36.0056 40.0761ZM46 7.75H38.155V8.25H46V7.75ZM37.9144 7.93211L32.4571 27.2728L32.9383 27.4086L38.3956 8.06789L37.9144 7.93211ZM32.933 27.2561L26.1112 8.26713L25.6407 8.43617L32.4624 27.4252L32.933 27.2561ZM25.6455 8.25478L12.3432 39.9031L12.8041 40.0969L26.1064 8.44852L25.6455 8.25478ZM12.811 39.9216L2.23738 7.92156L1.76262 8.07844L12.3363 40.0784L12.811 39.9216ZM2 8.25H10.5271V7.75H2V8.25ZM10.2903 8.07992L15.7476 24.2557L16.2214 24.0959L10.764 7.92008L10.2903 8.07992Z" fill="white" fill-opacity="0.980646"/>
</g>
</g>
<defs>
<filter id="filter0_d_1010_1291" x="-2.34589" y="7.66211" width="52.6883" height="41.6719" filterUnits="userSpaceOnUse" color-interpolation-filters="sRGB">
<feFlood flood-opacity="0" result="BackgroundImageFix"/>
<feColorMatrix in="SourceAlpha" type="matrix" values="0 0 0 0 0 0 0 0 0 0 0 0 0 0 0 0 0 0 127 0" result="hardAlpha"/>
<feOffset dy="4"/>
<feGaussianBlur stdDeviation="2"/>
<feComposite in2="hardAlpha" operator="out"/>
<feColorMatrix type="matrix" values="0 0 0 0 0 0 0 0 0 0 0 0 0 0 0 0 0 0 0.25 0"/>
<feBlend mode="normal" in2="BackgroundImageFix" result="effect1_dropShadow_1010_1291"/>
<feBlend mode="normal" in="SourceGraphic" in2="effect1_dropShadow_1010_1291" result="shape"/>
</filter>
<clipPath id="clip0_1010_1291">
<rect width="48" height="48" rx="5" fill="white"/>
</clipPath>
</defs>
</svg>
